<svg xmlns="http://www.w3.org/2000/svg" xmlns:xlink="http://www.w3.org/1999/xlink" viewBox="0 0 61 81" fill="#fff" fill-rule="evenodd" stroke="#000" stroke-linecap="round" stroke-linejoin="round"><use xlink:href="#A" x=".5" y=".5"/><symbol id="A" overflow="visible"><path d="M23.533 80c-1.398 0-2.004-.98-1.398-2.143l17.359-28.102c.792-1.162 2.004-1.162 2.796 0l17.359 28.102c.792 1.162.21 2.143-1.398 2.143H23.533h0 0zM35.906 0H3.984C1.794 0 0 1.755 0 3.897V80h18.151c-.396-1.368 0-2.735.606-4.103l2.19-3.715H5.988v-3.897h17.359l2.4-3.897H5.988V60.49h21.949l7.177-12.285c.792-1.162 1.794-2.142 2.796-2.735a3.45 3.45 0 0 1 2.004-.593V3.715C39.89 1.755 38.096 0 35.906 0zm-2.004 15.613H5.988v-3.897h27.937v3.897z" fill="#2a3282" stroke="none"/></symbol></svg>